M48
;DRILL file {Pcbnew (2013-05-16 BZR 4016)-stable} date 25.05.2013 21:07:09
;FORMAT={-:-/ absolute / inch / decimal}
FMAT,2
INCH,TZ
T1C0.032
T2C0.040
%
G90
G05
M72
T1
X1.825Y-1.75
X1.825Y-1.85
X1.825Y-2.15
X1.825Y-2.25
X1.85Y-1.65
X1.95Y-2.
X2.05Y-2.
X2.15Y-1.65
X2.175Y-1.75
X2.175Y-1.85
X2.175Y-2.15
X2.175Y-2.25
X2.575Y-1.6
X2.65Y-1.85
X2.65Y-2.
X2.65Y-2.1
X2.65Y-2.2
X2.65Y-2.3
X2.925Y-1.6
X2.95Y-1.85
X2.95Y-2.
X2.95Y-2.1
X2.95Y-2.2
X2.95Y-2.3
T2
X1.7Y-1.65
X1.7Y-1.75
X1.7Y-1.85
X1.7Y-1.95
X1.7Y-2.1
X1.7Y-2.2
X1.7Y-2.3
X2.65Y-1.7
X2.75Y-1.7
T0
M30
