<?xml version="1.0" standalone="no"?>
 <!DOCTYPE svg PUBLIC "-//W3C//DTD SVG 1.1//EN" 
 "http://www.w3.org/Graphics/SVG/1.1/DTD/svg11.dtd"> 
<svg xmlns="http://www.w3.org/2000/svg" version="1.1" 
    width="29.7002cm" height="21.0007cm" viewBox="0 0 116930 82680 ">
<title>SVG Picture created as logstick-Dessous_Cu.svg date 2013/05/25 21:41:13 </title>
  <desc>Picture generated by PCBNEW </desc>
<g style="fill:#000000; fill-opacity:1;stroke:#000000; stroke-opacity:1;
stroke-linecap:round; stroke-linejoin:round; "
 transform="translate(0 0) scale(1 1)">
</g>
<g style="fill:#000000; fill-opacity:0.0; 
stroke:#000000; stroke-width:39.3701; stroke-opacity:1; 
stroke-linecap:round; stroke-linejoin:round;">
<path d="M4000 4000
L112930 4000
L112930 78680
L4000 78680
L4000 4000
" />
<path d="M4700 4700
L112230 4700
L112230 77980
L4700 77980
L4700 4700
" />
<path d="M25780 4000
L25780 4700
" />
<path d="M15032 4552
L14747 4552
" />
<path d="M14890 4552
L14890 4052
L14842 4123
L14794 4171
L14747 4195
" />
<path d="M25780 78680
L25780 77980
" />
<path d="M15032 78532
L14747 78532
" />
<path d="M14890 78532
L14890 78032
L14842 78103
L14794 78151
L14747 78175
" />
<path d="M47560 4000
L47560 4700
" />
<path d="M36527 4100
L36550 4076
L36598 4052
L36717 4052
L36765 4076
L36789 4100
L36812 4147
L36812 4195
L36789 4266
L36503 4552
L36812 4552
" />
<path d="M47560 78680
L47560 77980
" />
<path d="M36527 78080
L36550 78056
L36598 78032
L36717 78032
L36765 78056
L36789 78080
L36812 78127
L36812 78175
L36789 78246
L36503 78532
L36812 78532
" />
<path d="M69340 4000
L69340 4700
" />
<path d="M58283 4052
L58592 4052
L58426 4242
L58497 4242
L58545 4266
L58569 4290
L58592 4338
L58592 4457
L58569 4504
L58545 4528
L58497 4552
L58354 4552
L58307 4528
L58283 4504
" />
<path d="M69340 78680
L69340 77980
" />
<path d="M58283 78032
L58592 78032
L58426 78222
L58497 78222
L58545 78246
L58569 78270
L58592 78318
L58592 78437
L58569 78484
L58545 78508
L58497 78532
L58354 78532
L58307 78508
L58283 78484
" />
<path d="M91120 4000
L91120 4700
" />
<path d="M80325 4219
L80325 4552
" />
<path d="M80206 4028
L80087 4385
L80396 4385
" />
<path d="M91120 78680
L91120 77980
" />
<path d="M80325 78199
L80325 78532
" />
<path d="M80206 78008
L80087 78365
L80396 78365
" />
<path d="M102129 4052
L101890 4052
L101867 4290
L101890 4266
L101938 4242
L102057 4242
L102105 4266
L102129 4290
L102152 4338
L102152 4457
L102129 4504
L102105 4528
L102057 4552
L101938 4552
L101890 4528
L101867 4504
" />
<path d="M102129 78032
L101890 78032
L101867 78270
L101890 78246
L101938 78222
L102057 78222
L102105 78246
L102129 78270
L102152 78318
L102152 78437
L102129 78484
L102105 78508
L102057 78532
L101938 78532
L101890 78508
L101867 78484
" />
<path d="M4000 28890
L4700 28890
" />
<path d="M4230 16509
L4469 16509
" />
<path d="M4183 16652
L4350 16152
L4516 16652
" />
<path d="M112930 28890
L112230 28890
" />
<path d="M112460 16509
L112699 16509
" />
<path d="M112413 16652
L112580 16152
L112746 16652
" />
<path d="M4000 53780
L4700 53780
" />
<path d="M4385 41280
L4457 41304
L4480 41328
L4504 41375
L4504 41447
L4480 41494
L4457 41518
L4409 41542
L4219 41542
L4219 41042
L4385 41042
L4433 41066
L4457 41090
L4480 41137
L4480 41185
L4457 41232
L4433 41256
L4385 41280
L4219 41280
" />
<path d="M112930 53780
L112230 53780
" />
<path d="M112615 41280
L112687 41304
L112710 41328
L112734 41375
L112734 41447
L112710 41494
L112687 41518
L112639 41542
L112449 41542
L112449 41042
L112615 41042
L112663 41066
L112687 41090
L112710 41137
L112710 41185
L112687 41232
L112663 41256
L112615 41280
L112449 41280
" />
<path d="M4504 66384
L4480 66408
L4409 66432
L4361 66432
L4290 66408
L4242 66360
L4219 66313
L4195 66218
L4195 66146
L4219 66051
L4242 66003
L4290 65956
L4361 65932
L4409 65932
L4480 65956
L4504 65980
" />
<path d="M112734 66384
L112710 66408
L112639 66432
L112591 66432
L112520 66408
L112472 66360
L112449 66313
L112425 66218
L112425 66146
L112449 66051
L112472 66003
L112520 65956
L112591 65932
L112639 65932
L112710 65956
L112734 65980
" />
<path d="M79380 76422
L79455 75822
L79597 75822
L79680 75851
L79730 75908
L79751 75965
L79765 76080
L79755 76165
L79712 76280
L79676 76337
L79612 76394
L79522 76422
L79380 76422
" />
<path d="M80237 76422
L80276 76108
L80255 76051
L80201 76022
L80087 76022
L80026 76051
" />
<path d="M80240 76394
L80180 76422
L80037 76422
L79983 76394
L79962 76337
L79969 76280
L80005 76222
L80065 76194
L80208 76194
L80269 76165
" />
<path d="M80487 76022
L80715 76022
" />
<path d="M80597 75822
L80533 76337
L80555 76394
L80608 76422
L80665 76422
" />
<path d="M81097 76394
L81037 76422
L80922 76422
L80869 76394
L80847 76337
L80876 76108
L80912 76051
L80972 76022
L81087 76022
L81140 76051
L81162 76108
L81155 76165
L80862 76222
" />
<path d="M81387 76365
L81412 76394
L81380 76422
L81355 76394
L81387 76365
L81380 76422
" />
<path d="M81426 76051
L81451 76080
L81419 76108
L81394 76080
L81426 76051
L81419 76108
" />
<path d="M82162 75880
L82194 75851
L82255 75822
L82397 75822
L82451 75851
L82476 75880
L82497 75937
L82490 75994
L82451 76080
L82065 76422
L82437 76422
" />
<path d="M83055 75822
L82769 75822
L82705 76108
L82737 76080
L82797 76051
L82940 76051
L82994 76080
L83019 76108
L83040 76165
L83022 76308
L82987 76365
L82955 76394
L82894 76422
L82751 76422
L82697 76394
L82672 76365
" />
<path d="M83722 76422
L83772 76022
" />
<path d="M83765 76080
L83797 76051
L83858 76022
L83944 76022
L83997 76051
L84019 76108
L83980 76422
" />
<path d="M84019 76108
L84055 76051
L84115 76022
L84201 76022
L84255 76051
L84276 76108
L84237 76422
" />
<path d="M84780 76422
L84819 76108
L84797 76051
L84744 76022
L84630 76022
L84569 76051
" />
<path d="M84783 76394
L84722 76422
L84580 76422
L84526 76394
L84505 76337
L84512 76280
L84547 76222
L84608 76194
L84751 76194
L84812 76165
" />
<path d="M85058 76022
L85151 76422
" />
<path d="M85344 76022
L85151 76422
L85076 76565
L85044 76594
L84983 76622
" />
<path d="M86019 75880
L86051 75851
L86112 75822
L86255 75822
L86308 75851
L86333 75880
L86355 75937
L86347 75994
L86308 76080
L85922 76422
L86294 76422
" />
<path d="M86740 75822
L86797 75822
L86851 75851
L86876 75880
L86897 75937
L86912 76051
L86894 76194
L86851 76308
L86815 76365
L86783 76394
L86722 76422
L86665 76422
L86612 76394
L86587 76365
L86565 76308
L86551 76194
L86569 76051
L86612 75937
L86647 75880
L86680 75851
L86740 75822
" />
<path d="M87437 76422
L87094 76422
" />
<path d="M87265 76422
L87340 75822
L87272 75908
L87208 75965
L87147 75994
" />
<path d="M87712 75822
L88083 75822
L87855 76051
L87940 76051
L87994 76080
L88019 76108
L88040 76165
L88022 76308
L87987 76365
L87955 76394
L87894 76422
L87722 76422
L87669 76394
L87644 76365
" />
<path d="M70972 77622
L70972 77022
" />
<path d="M71315 77622
L71058 77280
" />
<path d="M71315 77022
L70972 77365
" />
<path d="M71572 77622
L71572 77222
" />
<path d="M71572 77022
L71544 77051
L71572 77080
L71601 77051
L71572 77022
L71572 77080
" />
<path d="M72201 77565
L72172 77594
L72087 77622
L72030 77622
L71944 77594
L71887 77537
L71858 77480
L71830 77365
L71830 77280
L71858 77165
L71887 77108
L71944 77051
L72030 77022
L72087 77022
L72172 77051
L72201 77080
" />
<path d="M72715 77622
L72715 77308
L72687 77251
L72630 77222
L72515 77222
L72458 77251
" />
<path d="M72715 77594
L72658 77622
L72515 77622
L72458 77594
L72430 77537
L72430 77480
L72458 77422
L72515 77394
L72658 77394
L72715 77365
" />
<path d="M73258 77622
L73258 77022
" />
<path d="M73258 77594
L73201 77622
L73087 77622
L73030 77594
L73001 77565
L72972 77508
L72972 77337
L73001 77280
L73030 77251
L73087 77222
L73201 77222
L73258 77251
" />
<path d="M74001 77308
L74201 77308
" />
<path d="M74287 77622
L74001 77622
L74001 77022
L74287 77022
" />
<path d="M74544 77565
L74572 77594
L74544 77622
L74515 77594
L74544 77565
L74544 77622
" />
<path d="M74829 77622
L74829 77022
L74972 77022
L75058 77051
L75115 77108
L75144 77165
L75172 77280
L75172 77365
L75144 77480
L75115 77537
L75058 77594
L74972 77622
L74829 77622
" />
<path d="M75429 77565
L75458 77594
L75429 77622
L75401 77594
L75429 77565
L75429 77622
" />
<path d="M75687 77451
L75972 77451
" />
<path d="M75629 77622
L75829 77022
L76029 77622
" />
<path d="M76229 77565
L76258 77594
L76229 77622
L76201 77594
L76229 77565
L76229 77622
" />
<path d="M104522 76422
L104358 76137
" />
<path d="M104180 76422
L104255 75822
L104483 75822
L104537 75851
L104562 75880
L104583 75937
L104572 76022
L104537 76080
L104505 76108
L104444 76137
L104215 76137
" />
<path d="M105012 76394
L104951 76422
L104837 76422
L104783 76394
L104762 76337
L104790 76108
L104826 76051
L104887 76022
L105001 76022
L105055 76051
L105076 76108
L105069 76165
L104776 76222
" />
<path d="M105287 76022
L105380 76422
L105572 76022
" />
<path d="M105758 76365
L105783 76394
L105751 76422
L105726 76394
L105758 76365
L105751 76422
" />
<path d="M105797 76051
L105822 76080
L105790 76108
L105765 76080
L105797 76051
L105790 76108
" />
<path d="M70944 76394
L71030 76422
L71172 76422
L71230 76394
L71258 76365
L71287 76308
L71287 76251
L71258 76194
L71230 76165
L71172 76137
L71058 76108
L71001 76080
L70972 76051
L70944 75994
L70944 75937
L70972 75880
L71001 75851
L71058 75822
L71201 75822
L71287 75851
" />
<path d="M71544 76422
L71544 76022
" />
<path d="M71544 75822
L71515 75851
L71544 75880
L71572 75851
L71544 75822
L71544 75880
" />
<path d="M71772 76022
L72087 76022
L71772 76422
L72087 76422
" />
<path d="M72544 76394
L72487 76422
L72372 76422
L72315 76394
L72287 76337
L72287 76108
L72315 76051
L72372 76022
L72487 76022
L72544 76051
L72572 76108
L72572 76165
L72287 76222
" />
<path d="M72830 76365
L72858 76394
L72830 76422
L72801 76394
L72830 76365
L72830 76422
" />
<path d="M72830 76051
L72858 76080
L72830 76108
L72801 76080
L72830 76051
L72830 76108
" />
<path d="M73544 76251
L73830 76251
" />
<path d="M73487 76422
L73687 75822
L73887 76422
" />
<path d="M74344 76022
L74344 76422
" />
<path d="M74201 75794
L74058 76222
L74430 76222
" />
<path d="M104172 77622
L104172 77022
" />
<path d="M104715 77622
L104715 77022
" />
<path d="M104715 77594
L104658 77622
L104544 77622
L104487 77594
L104458 77565
L104430 77508
L104430 77337
L104458 77280
L104487 77251
L104544 77222
L104658 77222
L104715 77251
" />
<path d="M105001 77565
L105030 77594
L105001 77622
L104972 77594
L105001 77565
L105001 77622
" />
<path d="M105001 77251
L105030 77280
L105001 77308
L104972 77280
L105001 77251
L105001 77308
" />
<path d="M106058 77622
L105715 77622
" />
<path d="M105887 77622
L105887 77022
L105829 77108
L105772 77165
L105715 77194
" />
<path d="M106744 76994
L106230 77765
" />
<path d="M107258 77622
L106915 77622
" />
<path d="M107087 77622
L107087 77022
L107029 77108
L106972 77165
L106915 77194
" />
<path d="M70969 74622
L71312 74622
" />
<path d="M71065 75222
L71140 74622
" />
<path d="M71437 75222
L71487 74822
" />
<path d="M71512 74622
L71480 74651
L71505 74680
L71537 74651
L71512 74622
L71505 74680
" />
<path d="M71687 74822
L71915 74822
" />
<path d="M71797 74622
L71733 75137
L71755 75194
L71808 75222
L71865 75222
" />
<path d="M72151 75222
L72097 75194
L72076 75137
L72140 74622
" />
<path d="M72612 75194
L72551 75222
L72437 75222
L72383 75194
L72362 75137
L72390 74908
L72426 74851
L72487 74822
L72601 74822
L72655 74851
L72676 74908
L72669 74965
L72376 75022
" />
<path d="M72901 75165
L72926 75194
L72894 75222
L72869 75194
L72901 75165
L72894 75222
" />
<path d="M72940 74851
L72965 74880
L72933 74908
L72908 74880
L72940 74851
L72933 74908
" />
<path d="M73922 75222
L73637 75222
L73712 74622
" />
<path d="M74208 75222
L74155 75194
L74130 75165
L74108 75108
L74130 74937
L74165 74880
L74197 74851
L74258 74822
L74344 74822
L74397 74851
L74422 74880
L74444 74937
L74422 75108
L74387 75165
L74355 75194
L74294 75222
L74208 75222
" />
<path d="M74972 74822
L74912 75308
L74876 75365
L74844 75394
L74783 75422
L74697 75422
L74644 75394
" />
<path d="M74926 75194
L74865 75222
L74751 75222
L74697 75194
L74672 75165
L74651 75108
L74672 74937
L74708 74880
L74740 74851
L74801 74822
L74915 74822
L74969 74851
" />
<path d="M75183 75194
L75265 75222
L75408 75222
L75469 75194
L75501 75165
L75537 75108
L75544 75051
L75522 74994
L75497 74965
L75444 74937
L75333 74908
L75280 74880
L75254 74851
L75233 74794
L75240 74737
L75276 74680
L75308 74651
L75369 74622
L75512 74622
L75594 74651
" />
<path d="M75744 74822
L75972 74822
" />
<path d="M75855 74622
L75790 75137
L75812 75194
L75865 75222
L75922 75222
" />
<path d="M76122 75222
L76172 74822
" />
<path d="M76197 74622
L76165 74651
L76190 74680
L76222 74651
L76197 74622
L76190 74680
" />
<path d="M76669 75194
L76608 75222
L76494 75222
L76440 75194
L76415 75165
L76394 75108
L76415 74937
L76451 74880
L76483 74851
L76544 74822
L76658 74822
L76712 74851
" />
<path d="M76922 75222
L76997 74622
" />
<path d="M77008 74994
L77151 75222
" />
<path d="M77201 74822
L76944 75051
" />
<path d="M71172 72508
L70972 72508
" />
<path d="M70972 72822
L70972 72222
L71258 72222
" />
<path d="M71487 72822
L71487 72422
" />
<path d="M71487 72222
L71458 72251
L71487 72280
L71515 72251
L71487 72222
L71487 72280
" />
<path d="M71858 72822
L71801 72794
L71772 72737
L71772 72222
" />
<path d="M72315 72794
L72258 72822
L72144 72822
L72087 72794
L72058 72737
L72058 72508
L72087 72451
L72144 72422
L72258 72422
L72315 72451
L72344 72508
L72344 72565
L72058 72622
" />
<path d="M72601 72765
L72630 72794
L72601 72822
L72572 72794
L72601 72765
L72601 72822
" />
<path d="M72601 72451
L72630 72480
L72601 72508
L72572 72480
L72601 72451
L72601 72508
" />
<path d="M73430 72822
L73372 72794
L73344 72737
L73344 72222
" />
<path d="M73744 72822
L73687 72794
L73658 72765
L73630 72708
L73630 72537
L73658 72480
L73687 72451
L73744 72422
L73830 72422
L73887 72451
L73915 72480
L73944 72537
L73944 72708
L73915 72765
L73887 72794
L73830 72822
L73744 72822
" />
<path d="M74458 72422
L74458 72908
L74430 72965
L74401 72994
L74344 73022
L74258 73022
L74201 72994
" />
<path d="M74458 72794
L74401 72822
L74287 72822
L74230 72794
L74201 72765
L74172 72708
L74172 72537
L74201 72480
L74230 72451
L74287 72422
L74401 72422
L74458 72451
" />
<path d="M74715 72794
L74772 72822
L74887 72822
L74944 72794
L74972 72737
L74972 72708
L74944 72651
L74887 72622
L74801 72622
L74744 72594
L74715 72537
L74715 72508
L74744 72451
L74801 72422
L74887 72422
L74944 72451
" />
<path d="M75144 72422
L75372 72422
" />
<path d="M75230 72222
L75230 72737
L75258 72794
L75315 72822
L75372 72822
" />
<path d="M75572 72822
L75572 72422
" />
<path d="M75572 72222
L75544 72251
L75572 72280
L75601 72251
L75572 72222
L75572 72280
" />
<path d="M76115 72794
L76058 72822
L75944 72822
L75887 72794
L75858 72765
L75830 72708
L75830 72537
L75858 72480
L75887 72451
L75944 72422
L76058 72422
L76115 72451
" />
<path d="M76372 72822
L76372 72222
" />
<path d="M76430 72594
L76601 72822
" />
<path d="M76601 72422
L76372 72651
" />
<path d="M76858 72765
L76887 72794
L76858 72822
L76830 72794
L76858 72765
L76858 72822
" />
<path d="M77144 72822
L77144 72222
" />
<path d="M77201 72594
L77372 72822
" />
<path d="M77372 72422
L77144 72651
" />
<path d="M77629 72822
L77629 72422
" />
<path d="M77629 72222
L77601 72251
L77629 72280
L77658 72251
L77629 72222
L77629 72280
" />
<path d="M78172 72794
L78115 72822
L78001 72822
L77944 72794
L77915 72765
L77887 72708
L77887 72537
L77915 72480
L77944 72451
L78001 72422
L78115 72422
L78172 72451
" />
<path d="M78687 72822
L78687 72508
L78658 72451
L78601 72422
L78487 72422
L78429 72451
" />
<path d="M78687 72794
L78629 72822
L78487 72822
L78429 72794
L78401 72737
L78401 72680
L78429 72622
L78487 72594
L78629 72594
L78687 72565
" />
<path d="M79229 72822
L79229 72222
" />
<path d="M79229 72794
L79172 72822
L79058 72822
L79001 72794
L78972 72765
L78944 72708
L78944 72537
L78972 72480
L79001 72451
L79058 72422
L79172 72422
L79229 72451
" />
<path d="M79372 72880
L79829 72880
" />
<path d="M79972 72422
L79972 73022
" />
<path d="M79972 72451
L80029 72422
L80144 72422
L80201 72451
L80229 72480
L80258 72537
L80258 72708
L80229 72765
L80201 72794
L80144 72822
L80029 72822
L79972 72794
" />
<path d="M80772 72794
L80715 72822
L80601 72822
L80544 72794
L80515 72765
L80487 72708
L80487 72537
L80515 72480
L80544 72451
L80601 72422
L80715 72422
L80772 72451
" />
<path d="M81029 72822
L81029 72222
" />
<path d="M81029 72451
L81087 72422
L81201 72422
L81258 72451
L81287 72480
L81315 72537
L81315 72708
L81287 72765
L81258 72794
L81201 72822
L81087 72822
L81029 72794
" />
<path d="M70944 73994
L71030 74022
L71172 74022
L71230 73994
L71258 73965
L71287 73908
L71287 73851
L71258 73794
L71230 73765
L71172 73737
L71058 73708
L71001 73680
L70972 73651
L70944 73594
L70944 73537
L70972 73480
L71001 73451
L71058 73422
L71201 73422
L71287 73451
" />
<path d="M71544 74022
L71544 73422
" />
<path d="M71801 74022
L71801 73708
L71772 73651
L71715 73622
L71630 73622
L71572 73651
L71544 73680
" />
<path d="M72315 73994
L72258 74022
L72144 74022
L72087 73994
L72058 73937
L72058 73708
L72087 73651
L72144 73622
L72258 73622
L72315 73651
L72344 73708
L72344 73765
L72058 73822
" />
<path d="M72830 73994
L72772 74022
L72658 74022
L72601 73994
L72572 73937
L72572 73708
L72601 73651
L72658 73622
L72772 73622
L72830 73651
L72858 73708
L72858 73765
L72572 73822
" />
<path d="M73030 73622
L73258 73622
" />
<path d="M73115 73422
L73115 73937
L73144 73994
L73201 74022
L73258 74022
" />
<path d="M73458 73965
L73487 73994
L73458 74022
L73430 73994
L73458 73965
L73458 74022
" />
<path d="M73458 73651
L73487 73680
L73458 73708
L73430 73680
L73458 73651
L73458 73708
" />
<path d="M70230 71980
L70230 77980
" />
<path d="M70230 71980
L112230 71980
" />
<path d="M70230 71980
L112230 71980
" />
<path d="M70230 74380
L112230 74380
" />
<path d="M103430 75580
L103430 77980
" />
<path d="M70230 76780
L112230 76780
" />
<path d="M70230 75580
L112230 75580
" />
<path d="M76830 75580
L76830 76780
" />
</g>
<g style="fill:#FFFF00; fill-opacity:0.0; 
stroke:#FFFF00; stroke-width:39.3701; stroke-opacity:1; 
stroke-linecap:round; stroke-linejoin:round;">
<path d="M16000 24000
L16000 15000
" />
<path d="M31000 24000
L16000 24000
" />
<path d="M31000 15000
L31000 24000
" />
<path d="M16000 15000
L31000 15000
" />
</g>
<g style="fill:#7F7F00; fill-opacity:0.0; 
stroke:#7F7F00; stroke-width:39.3701; stroke-opacity:1; 
stroke-linecap:round; stroke-linejoin:round;">
</g>
<g style="fill:#7F7F00; fill-opacity:1.0; 
stroke:#7F7F00; stroke-width:39.3701; stroke-opacity:1; 
stroke-linecap:round; stroke-linejoin:round;">
<circle cx="18250" cy="18500" r="255.315" /> 
<circle cx="21750" cy="18500" r="255.315" /> 
<circle cx="18250" cy="17500" r="255.315" /> 
<circle cx="21750" cy="17500" r="255.315" /> 
<circle cx="18250" cy="21500" r="255.315" /> 
<circle cx="21750" cy="21500" r="255.315" /> 
<circle cx="18250" cy="22500" r="255.315" /> 
<circle cx="21750" cy="22500" r="255.315" /> 
<circle cx="29250" cy="16000" r="255.315" /> 
<circle cx="25750" cy="16000" r="255.315" /> 
<circle cx="20500" cy="20000" r="310.315" /> 
<circle cx="19500" cy="20000" r="310.315" /> 
<polyline style="fill-rule:evenodd;"
points="26755,18244
26755,18755
26244,18755
26244,18244
26755,18244
" /> 
<circle cx="29500" cy="18500" r="255.315" /> 
<polyline style="fill-rule:evenodd;"
points="21244,16755
21244,16244
21755,16244
21755,16755
21244,16755
" /> 
<circle cx="18500" cy="16500" r="255.315" /> 
<polyline style="fill-rule:evenodd;"
points="29755,23255
29244,23255
29244,22744
29755,22744
29755,23255
" /> 
<circle cx="29500" cy="22000" r="255.315" /> 
<circle cx="29500" cy="21000" r="255.315" /> 
<circle cx="29500" cy="20000" r="255.315" /> 
<circle cx="26500" cy="20000" r="255.315" /> 
<circle cx="26500" cy="21000" r="255.315" /> 
<circle cx="26500" cy="22000" r="255.315" /> 
<circle cx="26500" cy="23000" r="255.315" /> 
<polyline style="fill-rule:evenodd;"
points="17280,19780
16719,19780
16719,19219
17280,19219
17280,19780
" /> 
<circle cx="17000" cy="18500" r="280.315" /> 
<circle cx="17000" cy="17500" r="280.315" /> 
<circle cx="17000" cy="16500" r="280.315" /> 
<polyline style="fill-rule:evenodd;"
points="16719,20719
17280,20719
17280,21280
16719,21280
16719,20719
" /> 
<circle cx="17000" cy="22000" r="280.315" /> 
<circle cx="17000" cy="23000" r="280.315" /> 
<polyline style="fill-rule:evenodd;"
points="27780,16719
27780,17280
27219,17280
27219,16719
27780,16719
" /> 
<circle cx="26500" cy="17000" r="280.315" /> 
</g>
<g style="fill:#009F00; fill-opacity:1.0; 
stroke:#009F00; stroke-width:100; stroke-opacity:1; 
stroke-linecap:round; stroke-linejoin:round;">
<path d="M18250 21500
L18500 21500
" />
<path d="M18500 21500
L20000 23000
" />
<path d="M20000 23000
L26500 23000
" />
<path d="M17000 21000
L17500 21500
" />
<path d="M17500 21500
L18250 21500
" />
<path d="M17000 21000
L17000 19500
" />
<path d="M19500 20000
L18500 20000
" />
<path d="M18500 20000
L17500 19000
" />
<path d="M17500 19000
L16500 19000
" />
<path d="M16500 19000
L16500 22500
" />
<path d="M16500 22500
L17000 23000
" />
<path d="M27500 17000
L27500 16000
" />
<path d="M27500 16000
L27000 15500
" />
<path d="M27000 15500
L25000 15500
" />
<path d="M25000 15500
L24500 16000
" />
<path d="M24500 16000
L21000 16000
" />
<path d="M21000 16000
L20500 16500
" />
<path d="M20500 16500
L18500 16500
" />
<path d="M27500 17000
L28500 16000
" />
<path d="M28500 16000
L28500 15500
" />
<path d="M28500 15500
L30000 15500
" />
<path d="M30000 15500
L30000 18000
" />
<path d="M30000 18000
L29500 18500
" />
<path d="M18500 16500
L19000 17000
" />
<path d="M19000 17000
L19000 19500
" />
<path d="M19000 19500
L19500 20000
" />
<path d="M29500 18500
L29500 20000
" />
<path d="M18500 16500
L17000 16500
" />
<path d="M26500 17000
L26500 17500
" />
<path d="M26500 17500
L26000 18000
" />
<path d="M26000 18000
L26000 20500
" />
<path d="M26000 20500
L26500 21000
" />
<path d="M21750 17500
L20500 17500
" />
<path d="M20500 17500
L20500 18000
" />
<path d="M20500 18000
L20000 18500
" />
<path d="M20000 18500
L20000 20500
" />
<path d="M20000 20500
L21000 21500
" />
<path d="M21000 21500
L21000 22000
" />
<path d="M21000 22000
L26500 22000
" />
<path d="M21750 17500
L22000 17500
" />
<path d="M22000 17500
L22000 17000
" />
<path d="M22000 17000
L21500 16500
" />
<path d="M18250 17500
L17000 17500
" />
<path d="M26500 18500
L27000 18000
" />
<path d="M27000 18000
L27000 16500
" />
<path d="M27000 16500
L26000 16500
" />
<path d="M26000 16500
L25500 17000
" />
<path d="M25500 17000
L24000 17000
" />
<path d="M24000 17000
L22500 18500
" />
<path d="M22500 18500
L21750 18500
" />
<path d="M21750 18500
L22000 18500
" />
<path d="M22000 18500
L22000 21500
" />
<path d="M22000 21500
L21750 21500
" />
<path d="M26500 18500
L26500 20000
" />
<path d="M20500 20000
L20500 19000
" />
<path d="M20500 19000
L21000 18500
" />
<path d="M21000 18500
L21000 18000
" />
<path d="M21000 18000
L22500 18000
" />
<path d="M22500 18000
L24000 16500
" />
<path d="M24000 16500
L25000 16500
" />
<path d="M25000 16500
L25500 16000
" />
<path d="M25500 16000
L25750 16000
" />
<path d="M21750 22500
L27000 22500
" />
<path d="M27000 22500
L27500 22000
" />
<path d="M27500 22000
L29500 22000
" />
<path d="M18250 22500
L18500 22500
" />
<path d="M18500 22500
L18000 22000
" />
<path d="M18000 22000
L17000 22000
" />
<path d="M29250 16000
L29500 16000
" />
<path d="M29500 16000
L29500 17500
" />
<path d="M29500 17500
L29000 18000
" />
<path d="M29000 18000
L29000 20500
" />
<path d="M29000 20500
L29500 21000
" />
<path d="M17000 18500
L18250 18500
" />
</g>
<g style="fill:#009F00; fill-opacity:1.0; 
stroke:#009F00; stroke-width:39.3701; stroke-opacity:1; 
stroke-linecap:round; stroke-linejoin:round;">
<polyline style="fill-rule:evenodd;"
points="30730,23730
30029,23730
30029,20075
30029,18575
30018,18367
29960,18227
29867,18202
29570,18500
29867,18797
29960,18772
30029,18575
30029,20075
30018,19867
29960,19727
29867,19702
29570,20000
29867,20297
29960,20272
30029,20075
30029,23730
30025,23730
30025,21896
29945,21703
29797,21555
29664,21499
29797,21445
29944,21297
30024,21104
30025,20896
29945,20703
29797,20555
29671,20502
29772,20460
29797,20367
29500,20070
29494,20076
29423,20005
29429,20000
29423,19994
29494,19923
29500,19929
29797,19632
29772,19539
29575,19470
29367,19481
29300,19509
29300,18986
29424,19029
29632,19018
29772,18960
29797,18867
29500,18570
29494,18576
29423,18505
29429,18500
29423,18494
29494,18423
29500,18429
29797,18132
29772,18039
29575,17970
29447,17977
29712,17712
29712,17712
29777,17614
29799,17500
29800,17500
29800,16000
29777,15885
29760,15859
29695,15703
29547,15555
29354,15475
29146,15474
28953,15554
28805,15702
28725,15895
28724,16103
28804,16297
28952,16444
29145,16524
29200,16524
29200,17375
28787,17787
28722,17885
28700,18000
28700,20500
28722,20614
28787,20712
28975,20899
28974,21103
29054,21297
29202,21444
29335,21500
29203,21554
29057,21700
28050,21700
28050,17250
28050,16749
28049,16650
28011,16558
27941,16487
27849,16449
27612,16450
27550,16512
27550,16950
27987,16950
28050,16887
28050,16749
28050,17250
28050,17112
27987,17050
27550,17050
27550,17487
27612,17550
27849,17550
27941,17512
28011,17441
28049,17349
28050,17250
28050,21700
27500,21700
27385,21722
27287,21787
27024,22050
27025,21896
26945,21703
26797,21555
26664,21499
26797,21445
26944,21297
27024,21104
27025,20896
26945,20703
26797,20555
26664,20499
26797,20445
26944,20297
27024,20104
27025,19896
26945,19703
26800,19557
26800,19025
26824,19025
26916,18987
26986,18916
27024,18824
27025,18725
27025,18399
27212,18212
27212,18212
27277,18114
27299,18000
27300,18000
27300,17550
27387,17550
27450,17487
27450,17050
27442,17050
27442,16950
27450,16950
27450,16512
27387,16450
27290,16449
27277,16385
27212,16287
27114,16222
27000,16200
26235,16200
26274,16104
26275,15896
26195,15703
26047,15555
25854,15475
25646,15474
25453,15554
25305,15702
25256,15819
24875,16200
24000,16200
23885,16222
23787,16287
22375,17700
22235,17700
22260,17640
22277,17614
22300,17500
22300,17000
22277,16885
22212,16787
22212,16787
22025,16600
22025,16175
21987,16083
21916,16013
21824,15975
21725,15974
21175,15974
21083,16012
21013,16083
20975,16175
20974,16274
20974,16824
21012,16916
21083,16986
21175,17024
21274,17025
21524,17025
21453,17054
21307,17200
20500,17200
20385,17222
20287,17287
20222,17385
20200,17500
20200,17875
19787,18287
19722,18385
19700,18500
19700,19455
19588,19415
19358,19425
19194,19493
19163,19592
19500,19929
19505,19923
19576,19994
19570,20000
19576,20005
19505,20076
19500,20070
19429,20141
19429,20000
19092,19663
19029,19682
19029,16575
19018,16367
18960,16227
18867,16202
18797,16273
18797,16132
18772,16039
18575,15970
18367,15981
18227,16039
18202,16132
18500,16429
18797,16132
18797,16273
18570,16500
18867,16797
18960,16772
19029,16575
19029,19682
18993,19694
18915,19911
18925,20141
18993,20305
19092,20336
19429,20000
19429,20141
19163,20407
19194,20506
19411,20584
19641,20574
19709,20546
19722,20614
19787,20712
20700,21624
20700,22000
20722,22114
20787,22212
20885,22277
21000,22300
21264,22300
21225,22395
21224,22603
21264,22700
20124,22700
18743,21318
18695,21203
18547,21055
18354,20975
18146,20974
17953,21054
17807,21200
17624,21200
17550,21125
17550,20650
17512,20558
17441,20488
17349,20450
17300,20450
17300,20050
17349,20050
17441,20012
17511,19941
17549,19849
17550,19750
17550,19150
17512,19058
17441,18988
17349,18950
17327,18950
17465,18811
17470,18800
17807,18800
17952,18944
18145,19024
18353,19025
18547,18945
18694,18797
18774,18604
18775,18396
18695,18203
18547,18055
18414,17999
18547,17945
18694,17797
18774,17604
18775,17396
18695,17203
18547,17055
18479,17026
18632,17018
18772,16960
18797,16867
18500,16570
18429,16641
18429,16500
18132,16202
18039,16227
17970,16424
17981,16632
18039,16772
18132,16797
18429,16500
18429,16641
18202,16867
18227,16960
18268,16975
18146,16974
17953,17054
17807,17200
17554,17200
17554,16581
17543,16363
17481,16212
17385,16184
17315,16255
17315,16114
17287,16018
17081,15945
16863,15956
16712,16018
16684,16114
17000,16429
17315,16114
17315,16255
17070,16500
17385,16815
17481,16787
17554,16581
17554,17200
17471,17200
17466,17188
17311,17034
17236,17002
17287,16981
17315,16885
17000,16570
16929,16641
16929,16500
16614,16184
16518,16212
16445,16418
16456,16636
16518,16787
16614,16815
16929,16500
16929,16641
16684,16885
16712,16981
16767,17000
16688,17033
16534,17188
16450,17390
16449,17608
16533,17811
16688,17965
16769,17999
16688,18033
16534,18188
16450,18390
16449,18608
16533,18811
16672,18949
16650,18949
16558,18987
16488,19058
16450,19150
16449,19249
16449,19849
16487,19941
16558,20011
16650,20049
16700,20049
16700,20449
16650,20449
16558,20487
16488,20558
16450,20650
16449,20749
16449,21349
16487,21441
16558,21511
16650,21549
16672,21549
16534,21688
16450,21890
16449,22108
16533,22311
16688,22465
16763,22497
16712,22518
16684,22614
17000,22929
17315,22614
17287,22518
17232,22499
17311,22466
17465,22311
17470,22300
17764,22300
17725,22395
17724,22603
17804,22797
17952,22944
18145,23024
18353,23025
18547,22945
18694,22797
18760,22640
18760,22640
18777,22614
18777,22614
18799,22500
18800,22500
18777,22385
18760,22359
18760,22359
18695,22203
18547,22055
18430,22006
18421,21997
18528,21952
19787,23212
19787,23212
19885,23277
20000,23300
26057,23300
26202,23444
26395,23524
26603,23525
26797,23445
26944,23297
27024,23104
27025,22896
26985,22800
27000,22800
27000,22799
27114,22777
27114,22777
27212,22712
27624,22300
29057,22300
29202,22444
29274,22474
29175,22474
29083,22512
29013,22583
28975,22675
28974,22774
28974,23324
29012,23416
29083,23486
29175,23524
29274,23525
29824,23525
29916,23487
29986,23416
30024,23324
30025,23225
30025,22675
29987,22583
29916,22513
29824,22475
29725,22474
29725,22474
29797,22445
29944,22297
30024,22104
30025,21896
30025,23730
17554,23730
17554,23081
17543,22863
17481,22712
17385,22684
17070,23000
17385,23315
17481,23287
17554,23081
17554,23730
17315,23730
17315,23385
17000,23070
16929,23141
16929,23000
16614,22684
16518,22712
16445,22918
16456,23136
16518,23287
16614,23315
16929,23000
16929,23141
16684,23385
16712,23481
16918,23554
17136,23543
17287,23481
17315,23385
17315,23730
16269,23730
16269,15269
30730,15269
30730,23730
" /> 
</g>
<g style="fill:#009F00; fill-opacity:0.0; 
stroke:#009F00; stroke-width:100; stroke-opacity:1; 
stroke-linecap:round; stroke-linejoin:round;">
<polyline fill="none;"
points="30730,23730
30029,23730
30029,20075
30029,18575
30018,18367
29960,18227
29867,18202
29570,18500
29867,18797
29960,18772
30029,18575
30029,20075
30018,19867
29960,19727
29867,19702
29570,20000
29867,20297
29960,20272
30029,20075
30029,23730
30025,23730
30025,21896
29945,21703
29797,21555
29664,21499
29797,21445
29944,21297
30024,21104
30025,20896
29945,20703
29797,20555
29671,20502
29772,20460
29797,20367
29500,20070
29494,20076
29423,20005
29429,20000
29423,19994
29494,19923
29500,19929
29797,19632
29772,19539
29575,19470
29367,19481
29300,19509
29300,18986
29424,19029
29632,19018
29772,18960
29797,18867
29500,18570
29494,18576
29423,18505
29429,18500
29423,18494
29494,18423
29500,18429
29797,18132
29772,18039
29575,17970
29447,17977
29712,17712
29712,17712
29777,17614
29799,17500
29800,17500
29800,16000
29777,15885
29760,15859
29695,15703
29547,15555
29354,15475
29146,15474
28953,15554
28805,15702
28725,15895
28724,16103
28804,16297
28952,16444
29145,16524
29200,16524
29200,17375
28787,17787
28722,17885
28700,18000
28700,20500
28722,20614
28787,20712
28975,20899
28974,21103
29054,21297
29202,21444
29335,21500
29203,21554
29057,21700
28050,21700
28050,17250
28050,16749
28049,16650
28011,16558
27941,16487
27849,16449
27612,16450
27550,16512
27550,16950
27987,16950
28050,16887
28050,16749
28050,17250
28050,17112
27987,17050
27550,17050
27550,17487
27612,17550
27849,17550
27941,17512
28011,17441
28049,17349
28050,17250
28050,21700
27500,21700
27385,21722
27287,21787
27024,22050
27025,21896
26945,21703
26797,21555
26664,21499
26797,21445
26944,21297
27024,21104
27025,20896
26945,20703
26797,20555
26664,20499
26797,20445
26944,20297
27024,20104
27025,19896
26945,19703
26800,19557
26800,19025
26824,19025
26916,18987
26986,18916
27024,18824
27025,18725
27025,18399
27212,18212
27212,18212
27277,18114
27299,18000
27300,18000
27300,17550
27387,17550
27450,17487
27450,17050
27442,17050
27442,16950
27450,16950
27450,16512
27387,16450
27290,16449
27277,16385
27212,16287
27114,16222
27000,16200
26235,16200
26274,16104
26275,15896
26195,15703
26047,15555
25854,15475
25646,15474
25453,15554
25305,15702
25256,15819
24875,16200
24000,16200
23885,16222
23787,16287
22375,17700
22235,17700
22260,17640
22277,17614
22300,17500
22300,17000
22277,16885
22212,16787
22212,16787
22025,16600
22025,16175
21987,16083
21916,16013
21824,15975
21725,15974
21175,15974
21083,16012
21013,16083
20975,16175
20974,16274
20974,16824
21012,16916
21083,16986
21175,17024
21274,17025
21524,17025
21453,17054
21307,17200
20500,17200
20385,17222
20287,17287
20222,17385
20200,17500
20200,17875
19787,18287
19722,18385
19700,18500
19700,19455
19588,19415
19358,19425
19194,19493
19163,19592
19500,19929
19505,19923
19576,19994
19570,20000
19576,20005
19505,20076
19500,20070
19429,20141
19429,20000
19092,19663
19029,19682
19029,16575
19018,16367
18960,16227
18867,16202
18797,16273
18797,16132
18772,16039
18575,15970
18367,15981
18227,16039
18202,16132
18500,16429
18797,16132
18797,16273
18570,16500
18867,16797
18960,16772
19029,16575
19029,19682
18993,19694
18915,19911
18925,20141
18993,20305
19092,20336
19429,20000
19429,20141
19163,20407
19194,20506
19411,20584
19641,20574
19709,20546
19722,20614
19787,20712
20700,21624
20700,22000
20722,22114
20787,22212
20885,22277
21000,22300
21264,22300
21225,22395
21224,22603
21264,22700
20124,22700
18743,21318
18695,21203
18547,21055
18354,20975
18146,20974
17953,21054
17807,21200
17624,21200
17550,21125
17550,20650
17512,20558
17441,20488
17349,20450
17300,20450
17300,20050
17349,20050
17441,20012
17511,19941
17549,19849
17550,19750
17550,19150
17512,19058
17441,18988
17349,18950
17327,18950
17465,18811
17470,18800
17807,18800
17952,18944
18145,19024
18353,19025
18547,18945
18694,18797
18774,18604
18775,18396
18695,18203
18547,18055
18414,17999
18547,17945
18694,17797
18774,17604
18775,17396
18695,17203
18547,17055
18479,17026
18632,17018
18772,16960
18797,16867
18500,16570
18429,16641
18429,16500
18132,16202
18039,16227
17970,16424
17981,16632
18039,16772
18132,16797
18429,16500
18429,16641
18202,16867
18227,16960
18268,16975
18146,16974
17953,17054
17807,17200
17554,17200
17554,16581
17543,16363
17481,16212
17385,16184
17315,16255
17315,16114
17287,16018
17081,15945
16863,15956
16712,16018
16684,16114
17000,16429
17315,16114
17315,16255
17070,16500
17385,16815
17481,16787
17554,16581
17554,17200
17471,17200
17466,17188
17311,17034
17236,17002
17287,16981
17315,16885
17000,16570
16929,16641
16929,16500
16614,16184
16518,16212
16445,16418
16456,16636
16518,16787
16614,16815
16929,16500
16929,16641
16684,16885
16712,16981
16767,17000
16688,17033
16534,17188
16450,17390
16449,17608
16533,17811
16688,17965
16769,17999
16688,18033
16534,18188
16450,18390
16449,18608
16533,18811
16672,18949
16650,18949
16558,18987
16488,19058
16450,19150
16449,19249
16449,19849
16487,19941
16558,20011
16650,20049
16700,20049
16700,20449
16650,20449
16558,20487
16488,20558
16450,20650
16449,20749
16449,21349
16487,21441
16558,21511
16650,21549
16672,21549
16534,21688
16450,21890
16449,22108
16533,22311
16688,22465
16763,22497
16712,22518
16684,22614
17000,22929
17315,22614
17287,22518
17232,22499
17311,22466
17465,22311
17470,22300
17764,22300
17725,22395
17724,22603
17804,22797
17952,22944
18145,23024
18353,23025
18547,22945
18694,22797
18760,22640
18760,22640
18777,22614
18777,22614
18799,22500
18800,22500
18777,22385
18760,22359
18760,22359
18695,22203
18547,22055
18430,22006
18421,21997
18528,21952
19787,23212
19787,23212
19885,23277
20000,23300
26057,23300
26202,23444
26395,23524
26603,23525
26797,23445
26944,23297
27024,23104
27025,22896
26985,22800
27000,22800
27000,22799
27114,22777
27114,22777
27212,22712
27624,22300
29057,22300
29202,22444
29274,22474
29175,22474
29083,22512
29013,22583
28975,22675
28974,22774
28974,23324
29012,23416
29083,23486
29175,23524
29274,23525
29824,23525
29916,23487
29986,23416
30024,23324
30025,23225
30025,22675
29987,22583
29916,22513
29824,22475
29725,22474
29725,22474
29797,22445
29944,22297
30024,22104
30025,21896
30025,23730
17554,23730
17554,23081
17543,22863
17481,22712
17385,22684
17070,23000
17385,23315
17481,23287
17554,23081
17554,23730
17315,23730
17315,23385
17000,23070
16929,23141
16929,23000
16614,22684
16518,22712
16445,22918
16456,23136
16518,23287
16614,23315
16929,23000
16929,23141
16684,23385
16712,23481
16918,23554
17136,23543
17287,23481
17315,23385
17315,23730
16269,23730
16269,15269
30730,15269
30730,23730
" /> 
</g>
<g style="fill:#FFFFFF; fill-opacity:0.0; 
stroke:#FFFFFF; stroke-width:39.3701; stroke-opacity:1; 
stroke-linecap:round; stroke-linejoin:round;">
</g>
<g style="fill:#FFFFFF; fill-opacity:1.0; 
stroke:#FFFFFF; stroke-width:39.3701; stroke-opacity:1; 
stroke-linecap:round; stroke-linejoin:round;">
<circle cx="18250" cy="18500" r="140.315" /> 
<circle cx="21750" cy="18500" r="140.315" /> 
<circle cx="18250" cy="17500" r="140.315" /> 
<circle cx="21750" cy="17500" r="140.315" /> 
<circle cx="18250" cy="21500" r="140.315" /> 
<circle cx="21750" cy="21500" r="140.315" /> 
<circle cx="18250" cy="22500" r="140.315" /> 
<circle cx="21750" cy="22500" r="140.315" /> 
<circle cx="29250" cy="16000" r="140.315" /> 
<circle cx="25750" cy="16000" r="140.315" /> 
<circle cx="20500" cy="20000" r="140.315" /> 
<circle cx="19500" cy="20000" r="140.315" /> 
<circle cx="26500" cy="18500" r="140.315" /> 
<circle cx="29500" cy="18500" r="140.315" /> 
<circle cx="21500" cy="16500" r="140.315" /> 
<circle cx="18500" cy="16500" r="140.315" /> 
<circle cx="29500" cy="23000" r="140.315" /> 
<circle cx="29500" cy="22000" r="140.315" /> 
<circle cx="29500" cy="21000" r="140.315" /> 
<circle cx="29500" cy="20000" r="140.315" /> 
<circle cx="26500" cy="20000" r="140.315" /> 
<circle cx="26500" cy="21000" r="140.315" /> 
<circle cx="26500" cy="22000" r="140.315" /> 
<circle cx="26500" cy="23000" r="140.315" /> 
<circle cx="17000" cy="19500" r="180.315" /> 
<circle cx="17000" cy="18500" r="180.315" /> 
<circle cx="17000" cy="17500" r="180.315" /> 
<circle cx="17000" cy="16500" r="180.315" /> 
<circle cx="17000" cy="21000" r="180.315" /> 
<circle cx="17000" cy="22000" r="180.315" /> 
<circle cx="17000" cy="23000" r="180.315" /> 
<circle cx="27500" cy="17000" r="180.315" /> 
<circle cx="26500" cy="17000" r="180.315" /> 
</g> 
</svg>
