G04 (created by PCBNEW (2013-05-16 BZR 4016)-stable) date 25.05.2013 21:05:43*
%MOIN*%
G04 Gerber Fmt 3.4, Leading zero omitted, Abs format*
%FSLAX34Y34*%
G01*
G70*
G90*
G04 APERTURE LIST*
%ADD10C,0.00590551*%
%ADD11C,0.055*%
%ADD12C,0.066*%
%ADD13R,0.055X0.055*%
%ADD14R,0.06X0.06*%
%ADD15C,0.06*%
%ADD16C,0.01*%
G04 APERTURE END LIST*
G54D10*
G54D11*
X18250Y-18500D03*
X21750Y-18500D03*
X18250Y-17500D03*
X21750Y-17500D03*
X18250Y-21500D03*
X21750Y-21500D03*
X18250Y-22500D03*
X21750Y-22500D03*
X29250Y-16000D03*
X25750Y-16000D03*
G54D12*
X20500Y-20000D03*
X19500Y-20000D03*
G54D13*
X26500Y-18500D03*
G54D11*
X29500Y-18500D03*
G54D13*
X21500Y-16500D03*
G54D11*
X18500Y-16500D03*
G54D13*
X29500Y-23000D03*
G54D11*
X29500Y-22000D03*
X29500Y-21000D03*
X29500Y-20000D03*
X26500Y-20000D03*
X26500Y-21000D03*
X26500Y-22000D03*
X26500Y-23000D03*
G54D14*
X17000Y-19500D03*
G54D15*
X17000Y-18500D03*
X17000Y-17500D03*
X17000Y-16500D03*
G54D14*
X17000Y-21000D03*
G54D15*
X17000Y-22000D03*
X17000Y-23000D03*
G54D14*
X27500Y-17000D03*
G54D15*
X26500Y-17000D03*
G54D16*
X18250Y-21500D02*
X18500Y-21500D01*
X18500Y-21500D02*
X20000Y-23000D01*
X20000Y-23000D02*
X26500Y-23000D01*
X17000Y-21000D02*
X17500Y-21500D01*
X17500Y-21500D02*
X18250Y-21500D01*
X17000Y-21000D02*
X17000Y-19500D01*
X19500Y-20000D02*
X18500Y-20000D01*
X18500Y-20000D02*
X17500Y-19000D01*
X17500Y-19000D02*
X16500Y-19000D01*
X16500Y-19000D02*
X16500Y-22500D01*
X16500Y-22500D02*
X17000Y-23000D01*
X27500Y-17000D02*
X27500Y-16000D01*
X27500Y-16000D02*
X27000Y-15500D01*
X27000Y-15500D02*
X25000Y-15500D01*
X25000Y-15500D02*
X24500Y-16000D01*
X24500Y-16000D02*
X21000Y-16000D01*
X21000Y-16000D02*
X20500Y-16500D01*
X20500Y-16500D02*
X18500Y-16500D01*
X27500Y-17000D02*
X28500Y-16000D01*
X28500Y-16000D02*
X28500Y-15500D01*
X28500Y-15500D02*
X30000Y-15500D01*
X30000Y-15500D02*
X30000Y-18000D01*
X30000Y-18000D02*
X29500Y-18500D01*
X18500Y-16500D02*
X19000Y-17000D01*
X19000Y-17000D02*
X19000Y-19500D01*
X19000Y-19500D02*
X19500Y-20000D01*
X29500Y-18500D02*
X29500Y-20000D01*
X18500Y-16500D02*
X17000Y-16500D01*
X26500Y-17000D02*
X26500Y-17500D01*
X26500Y-17500D02*
X26000Y-18000D01*
X26000Y-18000D02*
X26000Y-20500D01*
X26000Y-20500D02*
X26500Y-21000D01*
X21750Y-17500D02*
X20500Y-17500D01*
X20500Y-17500D02*
X20500Y-18000D01*
X20500Y-18000D02*
X20000Y-18500D01*
X20000Y-18500D02*
X20000Y-20500D01*
X20000Y-20500D02*
X21000Y-21500D01*
X21000Y-21500D02*
X21000Y-22000D01*
X21000Y-22000D02*
X26500Y-22000D01*
X21750Y-17500D02*
X22000Y-17500D01*
X22000Y-17500D02*
X22000Y-17000D01*
X22000Y-17000D02*
X21500Y-16500D01*
X18250Y-17500D02*
X17000Y-17500D01*
X26500Y-18500D02*
X27000Y-18000D01*
X27000Y-18000D02*
X27000Y-16500D01*
X27000Y-16500D02*
X26000Y-16500D01*
X26000Y-16500D02*
X25500Y-17000D01*
X25500Y-17000D02*
X24000Y-17000D01*
X24000Y-17000D02*
X22500Y-18500D01*
X22500Y-18500D02*
X21750Y-18500D01*
X21750Y-18500D02*
X22000Y-18500D01*
X22000Y-18500D02*
X22000Y-21500D01*
X22000Y-21500D02*
X21750Y-21500D01*
X26500Y-18500D02*
X26500Y-20000D01*
X20500Y-20000D02*
X20500Y-19000D01*
X20500Y-19000D02*
X21000Y-18500D01*
X21000Y-18500D02*
X21000Y-18000D01*
X21000Y-18000D02*
X22500Y-18000D01*
X22500Y-18000D02*
X24000Y-16500D01*
X24000Y-16500D02*
X25000Y-16500D01*
X25000Y-16500D02*
X25500Y-16000D01*
X25500Y-16000D02*
X25750Y-16000D01*
X21750Y-22500D02*
X27000Y-22500D01*
X27000Y-22500D02*
X27500Y-22000D01*
X27500Y-22000D02*
X29500Y-22000D01*
X18250Y-22500D02*
X18500Y-22500D01*
X18500Y-22500D02*
X18000Y-22000D01*
X18000Y-22000D02*
X17000Y-22000D01*
X29250Y-16000D02*
X29500Y-16000D01*
X29500Y-16000D02*
X29500Y-17500D01*
X29500Y-17500D02*
X29000Y-18000D01*
X29000Y-18000D02*
X29000Y-20500D01*
X29000Y-20500D02*
X29500Y-21000D01*
X17000Y-18500D02*
X18250Y-18500D01*
G54D10*
G36*
X30730Y-23730D02*
X30029Y-23730D01*
X30029Y-20075D01*
X30029Y-18575D01*
X30018Y-18367D01*
X29960Y-18227D01*
X29867Y-18202D01*
X29570Y-18500D01*
X29867Y-18797D01*
X29960Y-18772D01*
X30029Y-18575D01*
X30029Y-20075D01*
X30018Y-19867D01*
X29960Y-19727D01*
X29867Y-19702D01*
X29570Y-20000D01*
X29867Y-20297D01*
X29960Y-20272D01*
X30029Y-20075D01*
X30029Y-23730D01*
X30025Y-23730D01*
X30025Y-21896D01*
X29945Y-21703D01*
X29797Y-21555D01*
X29664Y-21499D01*
X29797Y-21445D01*
X29944Y-21297D01*
X30024Y-21104D01*
X30025Y-20896D01*
X29945Y-20703D01*
X29797Y-20555D01*
X29671Y-20502D01*
X29772Y-20460D01*
X29797Y-20367D01*
X29500Y-20070D01*
X29494Y-20076D01*
X29423Y-20005D01*
X29429Y-20000D01*
X29423Y-19994D01*
X29494Y-19923D01*
X29500Y-19929D01*
X29797Y-19632D01*
X29772Y-19539D01*
X29575Y-19470D01*
X29367Y-19481D01*
X29300Y-19509D01*
X29300Y-18986D01*
X29424Y-19029D01*
X29632Y-19018D01*
X29772Y-18960D01*
X29797Y-18867D01*
X29500Y-18570D01*
X29494Y-18576D01*
X29423Y-18505D01*
X29429Y-18500D01*
X29423Y-18494D01*
X29494Y-18423D01*
X29500Y-18429D01*
X29797Y-18132D01*
X29772Y-18039D01*
X29575Y-17970D01*
X29447Y-17977D01*
X29712Y-17712D01*
X29712Y-17712D01*
X29777Y-17614D01*
X29799Y-17500D01*
X29800Y-17500D01*
X29800Y-16000D01*
X29777Y-15885D01*
X29760Y-15859D01*
X29695Y-15703D01*
X29547Y-15555D01*
X29354Y-15475D01*
X29146Y-15474D01*
X28953Y-15554D01*
X28805Y-15702D01*
X28725Y-15895D01*
X28724Y-16103D01*
X28804Y-16297D01*
X28952Y-16444D01*
X29145Y-16524D01*
X29200Y-16524D01*
X29200Y-17375D01*
X28787Y-17787D01*
X28722Y-17885D01*
X28700Y-18000D01*
X28700Y-20500D01*
X28722Y-20614D01*
X28787Y-20712D01*
X28975Y-20899D01*
X28974Y-21103D01*
X29054Y-21297D01*
X29202Y-21444D01*
X29335Y-21500D01*
X29203Y-21554D01*
X29057Y-21700D01*
X28050Y-21700D01*
X28050Y-17250D01*
X28050Y-16749D01*
X28049Y-16650D01*
X28011Y-16558D01*
X27941Y-16487D01*
X27849Y-16449D01*
X27612Y-16450D01*
X27550Y-16512D01*
X27550Y-16950D01*
X27987Y-16950D01*
X28050Y-16887D01*
X28050Y-16749D01*
X28050Y-17250D01*
X28050Y-17112D01*
X27987Y-17050D01*
X27550Y-17050D01*
X27550Y-17487D01*
X27612Y-17550D01*
X27849Y-17550D01*
X27941Y-17512D01*
X28011Y-17441D01*
X28049Y-17349D01*
X28050Y-17250D01*
X28050Y-21700D01*
X27500Y-21700D01*
X27385Y-21722D01*
X27287Y-21787D01*
X27024Y-22050D01*
X27025Y-21896D01*
X26945Y-21703D01*
X26797Y-21555D01*
X26664Y-21499D01*
X26797Y-21445D01*
X26944Y-21297D01*
X27024Y-21104D01*
X27025Y-20896D01*
X26945Y-20703D01*
X26797Y-20555D01*
X26664Y-20499D01*
X26797Y-20445D01*
X26944Y-20297D01*
X27024Y-20104D01*
X27025Y-19896D01*
X26945Y-19703D01*
X26800Y-19557D01*
X26800Y-19025D01*
X26824Y-19025D01*
X26916Y-18987D01*
X26986Y-18916D01*
X27024Y-18824D01*
X27025Y-18725D01*
X27025Y-18399D01*
X27212Y-18212D01*
X27212Y-18212D01*
X27277Y-18114D01*
X27299Y-18000D01*
X27300Y-18000D01*
X27300Y-17550D01*
X27387Y-17550D01*
X27450Y-17487D01*
X27450Y-17050D01*
X27442Y-17050D01*
X27442Y-16950D01*
X27450Y-16950D01*
X27450Y-16512D01*
X27387Y-16450D01*
X27290Y-16449D01*
X27277Y-16385D01*
X27212Y-16287D01*
X27114Y-16222D01*
X27000Y-16200D01*
X26235Y-16200D01*
X26274Y-16104D01*
X26275Y-15896D01*
X26195Y-15703D01*
X26047Y-15555D01*
X25854Y-15475D01*
X25646Y-15474D01*
X25453Y-15554D01*
X25305Y-15702D01*
X25256Y-15819D01*
X24875Y-16200D01*
X24000Y-16200D01*
X23885Y-16222D01*
X23787Y-16287D01*
X22375Y-17700D01*
X22235Y-17700D01*
X22260Y-17640D01*
X22277Y-17614D01*
X22300Y-17500D01*
X22300Y-17000D01*
X22277Y-16885D01*
X22212Y-16787D01*
X22212Y-16787D01*
X22025Y-16600D01*
X22025Y-16175D01*
X21987Y-16083D01*
X21916Y-16013D01*
X21824Y-15975D01*
X21725Y-15974D01*
X21175Y-15974D01*
X21083Y-16012D01*
X21013Y-16083D01*
X20975Y-16175D01*
X20974Y-16274D01*
X20974Y-16824D01*
X21012Y-16916D01*
X21083Y-16986D01*
X21175Y-17024D01*
X21274Y-17025D01*
X21524Y-17025D01*
X21453Y-17054D01*
X21307Y-17200D01*
X20500Y-17200D01*
X20385Y-17222D01*
X20287Y-17287D01*
X20222Y-17385D01*
X20200Y-17500D01*
X20200Y-17875D01*
X19787Y-18287D01*
X19722Y-18385D01*
X19700Y-18500D01*
X19700Y-19455D01*
X19588Y-19415D01*
X19358Y-19425D01*
X19194Y-19493D01*
X19163Y-19592D01*
X19500Y-19929D01*
X19505Y-19923D01*
X19576Y-19994D01*
X19570Y-20000D01*
X19576Y-20005D01*
X19505Y-20076D01*
X19500Y-20070D01*
X19429Y-20141D01*
X19429Y-20000D01*
X19092Y-19663D01*
X19029Y-19682D01*
X19029Y-16575D01*
X19018Y-16367D01*
X18960Y-16227D01*
X18867Y-16202D01*
X18797Y-16273D01*
X18797Y-16132D01*
X18772Y-16039D01*
X18575Y-15970D01*
X18367Y-15981D01*
X18227Y-16039D01*
X18202Y-16132D01*
X18500Y-16429D01*
X18797Y-16132D01*
X18797Y-16273D01*
X18570Y-16500D01*
X18867Y-16797D01*
X18960Y-16772D01*
X19029Y-16575D01*
X19029Y-19682D01*
X18993Y-19694D01*
X18915Y-19911D01*
X18925Y-20141D01*
X18993Y-20305D01*
X19092Y-20336D01*
X19429Y-20000D01*
X19429Y-20141D01*
X19163Y-20407D01*
X19194Y-20506D01*
X19411Y-20584D01*
X19641Y-20574D01*
X19709Y-20546D01*
X19722Y-20614D01*
X19787Y-20712D01*
X20700Y-21624D01*
X20700Y-22000D01*
X20722Y-22114D01*
X20787Y-22212D01*
X20885Y-22277D01*
X21000Y-22300D01*
X21264Y-22300D01*
X21225Y-22395D01*
X21224Y-22603D01*
X21264Y-22700D01*
X20124Y-22700D01*
X18743Y-21318D01*
X18695Y-21203D01*
X18547Y-21055D01*
X18354Y-20975D01*
X18146Y-20974D01*
X17953Y-21054D01*
X17807Y-21200D01*
X17624Y-21200D01*
X17550Y-21125D01*
X17550Y-20650D01*
X17512Y-20558D01*
X17441Y-20488D01*
X17349Y-20450D01*
X17300Y-20450D01*
X17300Y-20050D01*
X17349Y-20050D01*
X17441Y-20012D01*
X17511Y-19941D01*
X17549Y-19849D01*
X17550Y-19750D01*
X17550Y-19150D01*
X17512Y-19058D01*
X17441Y-18988D01*
X17349Y-18950D01*
X17327Y-18950D01*
X17465Y-18811D01*
X17470Y-18800D01*
X17807Y-18800D01*
X17952Y-18944D01*
X18145Y-19024D01*
X18353Y-19025D01*
X18547Y-18945D01*
X18694Y-18797D01*
X18774Y-18604D01*
X18775Y-18396D01*
X18695Y-18203D01*
X18547Y-18055D01*
X18414Y-17999D01*
X18547Y-17945D01*
X18694Y-17797D01*
X18774Y-17604D01*
X18775Y-17396D01*
X18695Y-17203D01*
X18547Y-17055D01*
X18479Y-17026D01*
X18632Y-17018D01*
X18772Y-16960D01*
X18797Y-16867D01*
X18500Y-16570D01*
X18429Y-16641D01*
X18429Y-16500D01*
X18132Y-16202D01*
X18039Y-16227D01*
X17970Y-16424D01*
X17981Y-16632D01*
X18039Y-16772D01*
X18132Y-16797D01*
X18429Y-16500D01*
X18429Y-16641D01*
X18202Y-16867D01*
X18227Y-16960D01*
X18268Y-16975D01*
X18146Y-16974D01*
X17953Y-17054D01*
X17807Y-17200D01*
X17554Y-17200D01*
X17554Y-16581D01*
X17543Y-16363D01*
X17481Y-16212D01*
X17385Y-16184D01*
X17315Y-16255D01*
X17315Y-16114D01*
X17287Y-16018D01*
X17081Y-15945D01*
X16863Y-15956D01*
X16712Y-16018D01*
X16684Y-16114D01*
X17000Y-16429D01*
X17315Y-16114D01*
X17315Y-16255D01*
X17070Y-16500D01*
X17385Y-16815D01*
X17481Y-16787D01*
X17554Y-16581D01*
X17554Y-17200D01*
X17471Y-17200D01*
X17466Y-17188D01*
X17311Y-17034D01*
X17236Y-17002D01*
X17287Y-16981D01*
X17315Y-16885D01*
X17000Y-16570D01*
X16929Y-16641D01*
X16929Y-16500D01*
X16614Y-16184D01*
X16518Y-16212D01*
X16445Y-16418D01*
X16456Y-16636D01*
X16518Y-16787D01*
X16614Y-16815D01*
X16929Y-16500D01*
X16929Y-16641D01*
X16684Y-16885D01*
X16712Y-16981D01*
X16767Y-17000D01*
X16688Y-17033D01*
X16534Y-17188D01*
X16450Y-17390D01*
X16449Y-17608D01*
X16533Y-17811D01*
X16688Y-17965D01*
X16769Y-17999D01*
X16688Y-18033D01*
X16534Y-18188D01*
X16450Y-18390D01*
X16449Y-18608D01*
X16533Y-18811D01*
X16672Y-18949D01*
X16650Y-18949D01*
X16558Y-18987D01*
X16488Y-19058D01*
X16450Y-19150D01*
X16449Y-19249D01*
X16449Y-19849D01*
X16487Y-19941D01*
X16558Y-20011D01*
X16650Y-20049D01*
X16700Y-20049D01*
X16700Y-20449D01*
X16650Y-20449D01*
X16558Y-20487D01*
X16488Y-20558D01*
X16450Y-20650D01*
X16449Y-20749D01*
X16449Y-21349D01*
X16487Y-21441D01*
X16558Y-21511D01*
X16650Y-21549D01*
X16672Y-21549D01*
X16534Y-21688D01*
X16450Y-21890D01*
X16449Y-22108D01*
X16533Y-22311D01*
X16688Y-22465D01*
X16763Y-22497D01*
X16712Y-22518D01*
X16684Y-22614D01*
X17000Y-22929D01*
X17315Y-22614D01*
X17287Y-22518D01*
X17232Y-22499D01*
X17311Y-22466D01*
X17465Y-22311D01*
X17470Y-22300D01*
X17764Y-22300D01*
X17725Y-22395D01*
X17724Y-22603D01*
X17804Y-22797D01*
X17952Y-22944D01*
X18145Y-23024D01*
X18353Y-23025D01*
X18547Y-22945D01*
X18694Y-22797D01*
X18760Y-22640D01*
X18760Y-22640D01*
X18777Y-22614D01*
X18777Y-22614D01*
X18799Y-22500D01*
X18800Y-22500D01*
X18777Y-22385D01*
X18760Y-22359D01*
X18760Y-22359D01*
X18695Y-22203D01*
X18547Y-22055D01*
X18430Y-22006D01*
X18421Y-21997D01*
X18528Y-21952D01*
X19787Y-23212D01*
X19787Y-23212D01*
X19885Y-23277D01*
X20000Y-23300D01*
X26057Y-23300D01*
X26202Y-23444D01*
X26395Y-23524D01*
X26603Y-23525D01*
X26797Y-23445D01*
X26944Y-23297D01*
X27024Y-23104D01*
X27025Y-22896D01*
X26985Y-22800D01*
X27000Y-22800D01*
X27000Y-22799D01*
X27114Y-22777D01*
X27114Y-22777D01*
X27212Y-22712D01*
X27624Y-22300D01*
X29057Y-22300D01*
X29202Y-22444D01*
X29274Y-22474D01*
X29175Y-22474D01*
X29083Y-22512D01*
X29013Y-22583D01*
X28975Y-22675D01*
X28974Y-22774D01*
X28974Y-23324D01*
X29012Y-23416D01*
X29083Y-23486D01*
X29175Y-23524D01*
X29274Y-23525D01*
X29824Y-23525D01*
X29916Y-23487D01*
X29986Y-23416D01*
X30024Y-23324D01*
X30025Y-23225D01*
X30025Y-22675D01*
X29987Y-22583D01*
X29916Y-22513D01*
X29824Y-22475D01*
X29725Y-22474D01*
X29725Y-22474D01*
X29797Y-22445D01*
X29944Y-22297D01*
X30024Y-22104D01*
X30025Y-21896D01*
X30025Y-23730D01*
X17554Y-23730D01*
X17554Y-23081D01*
X17543Y-22863D01*
X17481Y-22712D01*
X17385Y-22684D01*
X17070Y-23000D01*
X17385Y-23315D01*
X17481Y-23287D01*
X17554Y-23081D01*
X17554Y-23730D01*
X17315Y-23730D01*
X17315Y-23385D01*
X17000Y-23070D01*
X16929Y-23141D01*
X16929Y-23000D01*
X16614Y-22684D01*
X16518Y-22712D01*
X16445Y-22918D01*
X16456Y-23136D01*
X16518Y-23287D01*
X16614Y-23315D01*
X16929Y-23000D01*
X16929Y-23141D01*
X16684Y-23385D01*
X16712Y-23481D01*
X16918Y-23554D01*
X17136Y-23543D01*
X17287Y-23481D01*
X17315Y-23385D01*
X17315Y-23730D01*
X16269Y-23730D01*
X16269Y-15269D01*
X30730Y-15269D01*
X30730Y-23730D01*
X30730Y-23730D01*
G37*
G54D16*
X30730Y-23730D02*
X30029Y-23730D01*
X30029Y-20075D01*
X30029Y-18575D01*
X30018Y-18367D01*
X29960Y-18227D01*
X29867Y-18202D01*
X29570Y-18500D01*
X29867Y-18797D01*
X29960Y-18772D01*
X30029Y-18575D01*
X30029Y-20075D01*
X30018Y-19867D01*
X29960Y-19727D01*
X29867Y-19702D01*
X29570Y-20000D01*
X29867Y-20297D01*
X29960Y-20272D01*
X30029Y-20075D01*
X30029Y-23730D01*
X30025Y-23730D01*
X30025Y-21896D01*
X29945Y-21703D01*
X29797Y-21555D01*
X29664Y-21499D01*
X29797Y-21445D01*
X29944Y-21297D01*
X30024Y-21104D01*
X30025Y-20896D01*
X29945Y-20703D01*
X29797Y-20555D01*
X29671Y-20502D01*
X29772Y-20460D01*
X29797Y-20367D01*
X29500Y-20070D01*
X29494Y-20076D01*
X29423Y-20005D01*
X29429Y-20000D01*
X29423Y-19994D01*
X29494Y-19923D01*
X29500Y-19929D01*
X29797Y-19632D01*
X29772Y-19539D01*
X29575Y-19470D01*
X29367Y-19481D01*
X29300Y-19509D01*
X29300Y-18986D01*
X29424Y-19029D01*
X29632Y-19018D01*
X29772Y-18960D01*
X29797Y-18867D01*
X29500Y-18570D01*
X29494Y-18576D01*
X29423Y-18505D01*
X29429Y-18500D01*
X29423Y-18494D01*
X29494Y-18423D01*
X29500Y-18429D01*
X29797Y-18132D01*
X29772Y-18039D01*
X29575Y-17970D01*
X29447Y-17977D01*
X29712Y-17712D01*
X29712Y-17712D01*
X29777Y-17614D01*
X29799Y-17500D01*
X29800Y-17500D01*
X29800Y-16000D01*
X29777Y-15885D01*
X29760Y-15859D01*
X29695Y-15703D01*
X29547Y-15555D01*
X29354Y-15475D01*
X29146Y-15474D01*
X28953Y-15554D01*
X28805Y-15702D01*
X28725Y-15895D01*
X28724Y-16103D01*
X28804Y-16297D01*
X28952Y-16444D01*
X29145Y-16524D01*
X29200Y-16524D01*
X29200Y-17375D01*
X28787Y-17787D01*
X28722Y-17885D01*
X28700Y-18000D01*
X28700Y-20500D01*
X28722Y-20614D01*
X28787Y-20712D01*
X28975Y-20899D01*
X28974Y-21103D01*
X29054Y-21297D01*
X29202Y-21444D01*
X29335Y-21500D01*
X29203Y-21554D01*
X29057Y-21700D01*
X28050Y-21700D01*
X28050Y-17250D01*
X28050Y-16749D01*
X28049Y-16650D01*
X28011Y-16558D01*
X27941Y-16487D01*
X27849Y-16449D01*
X27612Y-16450D01*
X27550Y-16512D01*
X27550Y-16950D01*
X27987Y-16950D01*
X28050Y-16887D01*
X28050Y-16749D01*
X28050Y-17250D01*
X28050Y-17112D01*
X27987Y-17050D01*
X27550Y-17050D01*
X27550Y-17487D01*
X27612Y-17550D01*
X27849Y-17550D01*
X27941Y-17512D01*
X28011Y-17441D01*
X28049Y-17349D01*
X28050Y-17250D01*
X28050Y-21700D01*
X27500Y-21700D01*
X27385Y-21722D01*
X27287Y-21787D01*
X27024Y-22050D01*
X27025Y-21896D01*
X26945Y-21703D01*
X26797Y-21555D01*
X26664Y-21499D01*
X26797Y-21445D01*
X26944Y-21297D01*
X27024Y-21104D01*
X27025Y-20896D01*
X26945Y-20703D01*
X26797Y-20555D01*
X26664Y-20499D01*
X26797Y-20445D01*
X26944Y-20297D01*
X27024Y-20104D01*
X27025Y-19896D01*
X26945Y-19703D01*
X26800Y-19557D01*
X26800Y-19025D01*
X26824Y-19025D01*
X26916Y-18987D01*
X26986Y-18916D01*
X27024Y-18824D01*
X27025Y-18725D01*
X27025Y-18399D01*
X27212Y-18212D01*
X27212Y-18212D01*
X27277Y-18114D01*
X27299Y-18000D01*
X27300Y-18000D01*
X27300Y-17550D01*
X27387Y-17550D01*
X27450Y-17487D01*
X27450Y-17050D01*
X27442Y-17050D01*
X27442Y-16950D01*
X27450Y-16950D01*
X27450Y-16512D01*
X27387Y-16450D01*
X27290Y-16449D01*
X27277Y-16385D01*
X27212Y-16287D01*
X27114Y-16222D01*
X27000Y-16200D01*
X26235Y-16200D01*
X26274Y-16104D01*
X26275Y-15896D01*
X26195Y-15703D01*
X26047Y-15555D01*
X25854Y-15475D01*
X25646Y-15474D01*
X25453Y-15554D01*
X25305Y-15702D01*
X25256Y-15819D01*
X24875Y-16200D01*
X24000Y-16200D01*
X23885Y-16222D01*
X23787Y-16287D01*
X22375Y-17700D01*
X22235Y-17700D01*
X22260Y-17640D01*
X22277Y-17614D01*
X22300Y-17500D01*
X22300Y-17000D01*
X22277Y-16885D01*
X22212Y-16787D01*
X22212Y-16787D01*
X22025Y-16600D01*
X22025Y-16175D01*
X21987Y-16083D01*
X21916Y-16013D01*
X21824Y-15975D01*
X21725Y-15974D01*
X21175Y-15974D01*
X21083Y-16012D01*
X21013Y-16083D01*
X20975Y-16175D01*
X20974Y-16274D01*
X20974Y-16824D01*
X21012Y-16916D01*
X21083Y-16986D01*
X21175Y-17024D01*
X21274Y-17025D01*
X21524Y-17025D01*
X21453Y-17054D01*
X21307Y-17200D01*
X20500Y-17200D01*
X20385Y-17222D01*
X20287Y-17287D01*
X20222Y-17385D01*
X20200Y-17500D01*
X20200Y-17875D01*
X19787Y-18287D01*
X19722Y-18385D01*
X19700Y-18500D01*
X19700Y-19455D01*
X19588Y-19415D01*
X19358Y-19425D01*
X19194Y-19493D01*
X19163Y-19592D01*
X19500Y-19929D01*
X19505Y-19923D01*
X19576Y-19994D01*
X19570Y-20000D01*
X19576Y-20005D01*
X19505Y-20076D01*
X19500Y-20070D01*
X19429Y-20141D01*
X19429Y-20000D01*
X19092Y-19663D01*
X19029Y-19682D01*
X19029Y-16575D01*
X19018Y-16367D01*
X18960Y-16227D01*
X18867Y-16202D01*
X18797Y-16273D01*
X18797Y-16132D01*
X18772Y-16039D01*
X18575Y-15970D01*
X18367Y-15981D01*
X18227Y-16039D01*
X18202Y-16132D01*
X18500Y-16429D01*
X18797Y-16132D01*
X18797Y-16273D01*
X18570Y-16500D01*
X18867Y-16797D01*
X18960Y-16772D01*
X19029Y-16575D01*
X19029Y-19682D01*
X18993Y-19694D01*
X18915Y-19911D01*
X18925Y-20141D01*
X18993Y-20305D01*
X19092Y-20336D01*
X19429Y-20000D01*
X19429Y-20141D01*
X19163Y-20407D01*
X19194Y-20506D01*
X19411Y-20584D01*
X19641Y-20574D01*
X19709Y-20546D01*
X19722Y-20614D01*
X19787Y-20712D01*
X20700Y-21624D01*
X20700Y-22000D01*
X20722Y-22114D01*
X20787Y-22212D01*
X20885Y-22277D01*
X21000Y-22300D01*
X21264Y-22300D01*
X21225Y-22395D01*
X21224Y-22603D01*
X21264Y-22700D01*
X20124Y-22700D01*
X18743Y-21318D01*
X18695Y-21203D01*
X18547Y-21055D01*
X18354Y-20975D01*
X18146Y-20974D01*
X17953Y-21054D01*
X17807Y-21200D01*
X17624Y-21200D01*
X17550Y-21125D01*
X17550Y-20650D01*
X17512Y-20558D01*
X17441Y-20488D01*
X17349Y-20450D01*
X17300Y-20450D01*
X17300Y-20050D01*
X17349Y-20050D01*
X17441Y-20012D01*
X17511Y-19941D01*
X17549Y-19849D01*
X17550Y-19750D01*
X17550Y-19150D01*
X17512Y-19058D01*
X17441Y-18988D01*
X17349Y-18950D01*
X17327Y-18950D01*
X17465Y-18811D01*
X17470Y-18800D01*
X17807Y-18800D01*
X17952Y-18944D01*
X18145Y-19024D01*
X18353Y-19025D01*
X18547Y-18945D01*
X18694Y-18797D01*
X18774Y-18604D01*
X18775Y-18396D01*
X18695Y-18203D01*
X18547Y-18055D01*
X18414Y-17999D01*
X18547Y-17945D01*
X18694Y-17797D01*
X18774Y-17604D01*
X18775Y-17396D01*
X18695Y-17203D01*
X18547Y-17055D01*
X18479Y-17026D01*
X18632Y-17018D01*
X18772Y-16960D01*
X18797Y-16867D01*
X18500Y-16570D01*
X18429Y-16641D01*
X18429Y-16500D01*
X18132Y-16202D01*
X18039Y-16227D01*
X17970Y-16424D01*
X17981Y-16632D01*
X18039Y-16772D01*
X18132Y-16797D01*
X18429Y-16500D01*
X18429Y-16641D01*
X18202Y-16867D01*
X18227Y-16960D01*
X18268Y-16975D01*
X18146Y-16974D01*
X17953Y-17054D01*
X17807Y-17200D01*
X17554Y-17200D01*
X17554Y-16581D01*
X17543Y-16363D01*
X17481Y-16212D01*
X17385Y-16184D01*
X17315Y-16255D01*
X17315Y-16114D01*
X17287Y-16018D01*
X17081Y-15945D01*
X16863Y-15956D01*
X16712Y-16018D01*
X16684Y-16114D01*
X17000Y-16429D01*
X17315Y-16114D01*
X17315Y-16255D01*
X17070Y-16500D01*
X17385Y-16815D01*
X17481Y-16787D01*
X17554Y-16581D01*
X17554Y-17200D01*
X17471Y-17200D01*
X17466Y-17188D01*
X17311Y-17034D01*
X17236Y-17002D01*
X17287Y-16981D01*
X17315Y-16885D01*
X17000Y-16570D01*
X16929Y-16641D01*
X16929Y-16500D01*
X16614Y-16184D01*
X16518Y-16212D01*
X16445Y-16418D01*
X16456Y-16636D01*
X16518Y-16787D01*
X16614Y-16815D01*
X16929Y-16500D01*
X16929Y-16641D01*
X16684Y-16885D01*
X16712Y-16981D01*
X16767Y-17000D01*
X16688Y-17033D01*
X16534Y-17188D01*
X16450Y-17390D01*
X16449Y-17608D01*
X16533Y-17811D01*
X16688Y-17965D01*
X16769Y-17999D01*
X16688Y-18033D01*
X16534Y-18188D01*
X16450Y-18390D01*
X16449Y-18608D01*
X16533Y-18811D01*
X16672Y-18949D01*
X16650Y-18949D01*
X16558Y-18987D01*
X16488Y-19058D01*
X16450Y-19150D01*
X16449Y-19249D01*
X16449Y-19849D01*
X16487Y-19941D01*
X16558Y-20011D01*
X16650Y-20049D01*
X16700Y-20049D01*
X16700Y-20449D01*
X16650Y-20449D01*
X16558Y-20487D01*
X16488Y-20558D01*
X16450Y-20650D01*
X16449Y-20749D01*
X16449Y-21349D01*
X16487Y-21441D01*
X16558Y-21511D01*
X16650Y-21549D01*
X16672Y-21549D01*
X16534Y-21688D01*
X16450Y-21890D01*
X16449Y-22108D01*
X16533Y-22311D01*
X16688Y-22465D01*
X16763Y-22497D01*
X16712Y-22518D01*
X16684Y-22614D01*
X17000Y-22929D01*
X17315Y-22614D01*
X17287Y-22518D01*
X17232Y-22499D01*
X17311Y-22466D01*
X17465Y-22311D01*
X17470Y-22300D01*
X17764Y-22300D01*
X17725Y-22395D01*
X17724Y-22603D01*
X17804Y-22797D01*
X17952Y-22944D01*
X18145Y-23024D01*
X18353Y-23025D01*
X18547Y-22945D01*
X18694Y-22797D01*
X18760Y-22640D01*
X18760Y-22640D01*
X18777Y-22614D01*
X18777Y-22614D01*
X18799Y-22500D01*
X18800Y-22500D01*
X18777Y-22385D01*
X18760Y-22359D01*
X18760Y-22359D01*
X18695Y-22203D01*
X18547Y-22055D01*
X18430Y-22006D01*
X18421Y-21997D01*
X18528Y-21952D01*
X19787Y-23212D01*
X19787Y-23212D01*
X19885Y-23277D01*
X20000Y-23300D01*
X26057Y-23300D01*
X26202Y-23444D01*
X26395Y-23524D01*
X26603Y-23525D01*
X26797Y-23445D01*
X26944Y-23297D01*
X27024Y-23104D01*
X27025Y-22896D01*
X26985Y-22800D01*
X27000Y-22800D01*
X27000Y-22799D01*
X27114Y-22777D01*
X27114Y-22777D01*
X27212Y-22712D01*
X27624Y-22300D01*
X29057Y-22300D01*
X29202Y-22444D01*
X29274Y-22474D01*
X29175Y-22474D01*
X29083Y-22512D01*
X29013Y-22583D01*
X28975Y-22675D01*
X28974Y-22774D01*
X28974Y-23324D01*
X29012Y-23416D01*
X29083Y-23486D01*
X29175Y-23524D01*
X29274Y-23525D01*
X29824Y-23525D01*
X29916Y-23487D01*
X29986Y-23416D01*
X30024Y-23324D01*
X30025Y-23225D01*
X30025Y-22675D01*
X29987Y-22583D01*
X29916Y-22513D01*
X29824Y-22475D01*
X29725Y-22474D01*
X29725Y-22474D01*
X29797Y-22445D01*
X29944Y-22297D01*
X30024Y-22104D01*
X30025Y-21896D01*
X30025Y-23730D01*
X17554Y-23730D01*
X17554Y-23081D01*
X17543Y-22863D01*
X17481Y-22712D01*
X17385Y-22684D01*
X17070Y-23000D01*
X17385Y-23315D01*
X17481Y-23287D01*
X17554Y-23081D01*
X17554Y-23730D01*
X17315Y-23730D01*
X17315Y-23385D01*
X17000Y-23070D01*
X16929Y-23141D01*
X16929Y-23000D01*
X16614Y-22684D01*
X16518Y-22712D01*
X16445Y-22918D01*
X16456Y-23136D01*
X16518Y-23287D01*
X16614Y-23315D01*
X16929Y-23000D01*
X16929Y-23141D01*
X16684Y-23385D01*
X16712Y-23481D01*
X16918Y-23554D01*
X17136Y-23543D01*
X17287Y-23481D01*
X17315Y-23385D01*
X17315Y-23730D01*
X16269Y-23730D01*
X16269Y-15269D01*
X30730Y-15269D01*
X30730Y-23730D01*
M02*
